:SAMPLES-PER-SECOND 30
:FULLY-SPECIFIED
:DEGREES
946
root  3.49406 39.2932 25.8099 -156.736 -81.4014 151.472
RightUpLeg  -16.3269 -15.6481 -6.91491
RightLeg  41.4521 5.46665 4.87251
RightFoot  -4.55075 -0.399808 6.20326
RightToes  2.21189e-009 0 -3.6325e-017
Spine  9.31726 -0.839417 -4.85286
Spine1  5.82213 -1.12674 -2.24999
HEad  -14.4177 -1.47316 -5.30069
LeftShoulder1  0.120389 3.17866 -30.998
LeftArm  -1.6888 5.03156 -41.4262
LeftForeArm  15.3974 -16.3306 -5.81476
LeftHand  -0.0533461 3.88408 2.65519
RightShoulder  -0.688254 -5.37906 29.9954
RightArm  6.10414 -2.85052 52.1648
RightForeArm  -31.0111 21.1253 6.12646
RightHand  -1.81308 12.5115 -12.1331
LeftUpLeg  1.96121 9.31259 0.219506
LeftLeg  14.7596 7.10542 -0.00167603
LeftFoot  -10.3663 0.0660577 -0.440741
LeftToes  -3.01956e-010 3.07132e-011 1.04116e-011
947
root  2.87277 39.3931 25.8184 -163.483 -80.1005 158.186
RightUpLeg  -16.1693 -18.7144 -5.70707
RightLeg  32.3205 6.65852 4.24879
RightFoot  -4.62105 -0.336552 5.21014
RightToes  2.21189e-009 0 -3.6325e-017
Spine  8.96226 -1.45014 -3.95817
Spine1  6.50177 -1.46909 -2.77977
HEad  -14.9142 -0.774109 -4.91261
LeftShoulder1  0.206684 2.93749 -30.356
LeftArm  -0.548876 5.42147 -41.5132
LeftForeArm  16.2129 -16.3448 -5.9592
LeftHand  -0.0638034 3.28884 2.65821
RightShoulder  -0.600966 -5.17197 29.2671
RightArm  11.8096 -2.08723 51.1374
RightForeArm  -24.4088 15.2165 6.55177
RightHand  -0.869423 6.98778 -8.54906
LeftUpLeg  4.44707 9.30075 0.820862
LeftLeg  12.4056 8.50231 -0.322856
LeftFoot  -10.4293 0.0678309 -0.636087
LeftToes  -3.01956e-010 3.07132e-011 1.04116e-011
948
root  2.24764 39.4789 25.7879 -165.463 -78.7824 160.7
RightUpLeg  -16.0989 -22.8302 -4.48099
RightLeg  21.857 7.23844 2.97327
RightFoot  -3.73141 -0.314447 4.3205
RightToes  2.21189e-009 0 -3.6325e-017
Spine  8.43153 -1.69321 -3.39578
Spine1  6.56163 -1.56475 -2.75487
HEad  -14.4524 -1.89642 -4.5092
LeftShoulder1  0.207853 2.93616 -30.5079
LeftArm  0.978366 4.6517 -41.033
LeftForeArm  17.2192 -15.5075 -6.60711
LeftHand  -0.0565664 3.30718 2.21534
RightShoulder  -0.561506 -5.08069 28.8147
RightArm  15.0573 -1.46967 49.146
RightForeArm  -4.90659 9.98568 7.91646
RightHand  -0.519468 7.32931 -5.12089
LeftUpLeg  6.55193 9.11259 0.633884
LeftLeg  9.33223 9.88322 -0.558599
LeftFoot  -10.0814 0.0728112 -1.11451
LeftToes  -3.01956e-010 3.07132e-011 1.04116e-011
949
root  1.6054 39.5052 25.6831 -165.472 -77.8497 161.062
RightUpLeg  -14.5691 -22.2793 -4.86623
RightLeg  10.3811 0.930621 2.40172
RightFoot  -2.37419 -0.32364 3.95016
RightToes  2.21189e-009 0 -3.6325e-017
Spine  8.17669 -1.75162 -3.05822
Spine1  6.50077 -1.60814 -2.37925
HEad  -14.9716 -2.6219 -4.19858
LeftShoulder1  0.165792 3.05157 -30.5382
LeftArm  -0.391739 3.53044 -41.1872
LeftForeArm  20.9774 -13.8265 -7.15638
LeftHand  -0.0385803 3.73623 1.39376
RightShoulder  -0.523618 -4.97744 28.7014
RightArm  18.593 -1.74525 46.935
RightForeArm  10.1374 6.98344 9.1577
RightHand  -0.54466 5.84524 -5.93536
LeftUpLeg  8.60255 8.86902 0.277873
LeftLeg  6.6799 11.015 -0.761525
LeftFoot  -9.90551 0.0790188 -1.56446
LeftToes  -3.01956e-010 3.07132e-011 1.04116e-011
950
root  0.970532 39.5057 25.5115 -165.287 -77.607 161.072
RightUpLeg  -11.6459 -11.6513 -8.0395
RightLeg  -0.45929 -17.2261 4.73423
RightFoot  -0.143091 -0.217834 2.20152
RightToes  2.21189e-009 0 -3.6325e-017
Spine  8.17143 -1.87476 -2.20039
Spine1  6.75272 -1.69659 -2.13069
HEad  -16.5944 -3.07773 -3.39836
LeftShoulder1  0.146654 3.1026 -30.4306
LeftArm  -2.75855 2.70481 -41.6202
LeftForeArm  23.3285 -12.6798 -7.14228
LeftHand  -0.030344 3.89556 0.722914
RightShoulder  -0.513417 -4.93833 28.9325
RightArm  18.124 -3.36335 44.73
RightForeArm  12.3415 3.71304 9.28603
RightHand  -0.558822 5.55265 -6.23109
LeftUpLeg  10.2135 8.74397 0.349125
LeftLeg  5.19953 11.2695 -1.02153
LeftFoot  -10.1141 0.0796693 -1.76636
LeftToes  -3.01956e-010 3.07132e-011 1.04116e-011
951
root  0.29112 39.4346 25.2354 -164.241 -77.7901 159.867
RightUpLeg  -10.6599 -11.3957 -7.83027
RightLeg  -5.35968 -22.005 5.19617
RightFoot  1.79599 0.0387204 -0.20163
RightToes  2.21189e-009 0 -3.6325e-017
Spine  8.16596 -1.93134 -1.66005
Spine1  7.55058 -1.88158 -1.44786
HEad  -17.4922 -4.2823 -4.14813
LeftShoulder1  0.175239 3.02678 -30.623
LeftArm  -3.72875 2.27934 -41.938
LeftForeArm  23.3568 -12.6099 -6.9035
LeftHand  -0.0246268 4.23664 0.293452
RightShoulder  -0.583231 -5.12686 29.1536
RightArm  14.483 -6.1747 42.5899
RightForeArm  8.94229 1.88426 7.75047
RightHand  -0.582402 5.2372 -6.6682
LeftUpLeg  11.7019 8.83282 0.706811
LeftLeg  4.95546 10.7059 -1.20848
LeftFoot  -10.9113 0.0731175 -2.1642
LeftToes  -3.01956e-010 3.07132e-011 1.04116e-011
952
root  -0.447289 39.3414 24.8832 -166.295 -77.7102 161.557
RightUpLeg  -11.2248 -11.2337 -7.21009
RightLeg  -2.69141 -22.9051 4.22142
RightFoot  4.55562 0.474862 -3.16303
RightToes  2.21189e-009 0 -3.6325e-017
Spine  8.58649 -2.08616 -0.37125
Spine1  7.85603 -2.09592 -1.04954
HEad  -18.5966 -4.8439 -4.68063
LeftShoulder1  0.162471 3.06211 -30.6435
LeftArm  -3.87108 2.75576 -42.0618
LeftForeArm  21.9323 -13.0558 -6.67389
LeftHand  -0.0227101 3.19197 0.53723
RightShoulder  -0.621496 -5.22897 29.2797
RightArm  9.48605 -9.40045 41.0535
RightForeArm  4.55757 1.17786 5.54087
RightHand  -0.556081 4.22103 -6.97615
LeftUpLeg  13.4989 9.12185 1.79167
LeftLeg  5.08154 10.0921 -1.20032
LeftFoot  -11.9847 0.0552615 -3.00385
LeftToes  -3.01956e-010 3.07132e-011 1.04116e-011
953
root  -1.27383 39.2247 24.4631 -171.452 -76.4127 166.707
RightUpLeg  -12.8062 -10.84 -5.91083
RightLeg  2.38438 -21.0625 2.69523
RightFoot  7.31158 0.916948 -5.28937
RightToes  2.21189e-009 0 -3.6325e-017
Spine  8.23498 -2.01494 1.84091
Spine1  8.42049 -1.80661 -1.32552
HEad  -19.2255 -4.741 -5.71233
LeftShoulder1  0.0797168 3.28768 -31.1044
LeftArm  -2.63616 4.19694 -41.7846
LeftForeArm  18.9592 -14.6794 -6.31218
LeftHand  -0.0414868 4.45483 2.00257
RightShoulder  -0.634864 -5.27612 29.089
RightArm  5.85362 -11.4821 40.0605
RightForeArm  0.0897175 0.9496 3.95983
RightHand  -0.589676 4.31529 -7.3343
LeftUpLeg  15.2046 9.57592 3.23979
LeftLeg  5.384 10.7028 -0.964564
LeftFoot  -13.0333 0.0155879 -4.14968
LeftToes  -3.01956e-010 3.07132e-011 1.04116e-011
